<mxfile host="app.diagrams.net" modified="2024-03-21T12:57:12.492Z" agent="Mozilla/5.0 (Windows NT 10.0; Win64; x64) AppleWebKit/537.36 (KHTML, like Gecko) Chrome/122.0.0.0 Safari/537.36" version="24.0.7" etag="Sn2HeyCTIDGnOUA2Ony5" type="device">
  <diagram id="ZM5gBwKl8Iof5bzQOTgf" name="Página-1">
    <mxGraphModel dx="1693" dy="750" grid="1" gridSize="10" guides="1" tooltips="1" connect="1" arrows="1" fold="1" page="1" pageScale="1" pageWidth="827" pageHeight="1169" math="0" shadow="0">
      <root>
        <mxCell id="0" />
        <mxCell id="1" parent="0" />
        <mxCell id="aZ5adwHKV0_EOkv4RIQL-3" style="edgeStyle=orthogonalEdgeStyle;rounded=0;orthogonalLoop=1;jettySize=auto;html=1;exitX=0.5;exitY=1;exitDx=0;exitDy=0;entryX=0.5;entryY=0;entryDx=0;entryDy=0;" edge="1" parent="1" source="aZ5adwHKV0_EOkv4RIQL-4" target="aZ5adwHKV0_EOkv4RIQL-8">
          <mxGeometry relative="1" as="geometry" />
        </mxCell>
        <mxCell id="aZ5adwHKV0_EOkv4RIQL-4" value="Inicio" style="ellipse;whiteSpace=wrap;html=1;" vertex="1" parent="1">
          <mxGeometry x="35" y="10" width="90" height="60" as="geometry" />
        </mxCell>
        <mxCell id="aZ5adwHKV0_EOkv4RIQL-17" style="edgeStyle=orthogonalEdgeStyle;rounded=0;orthogonalLoop=1;jettySize=auto;html=1;exitX=0.5;exitY=1;exitDx=0;exitDy=0;entryX=0.5;entryY=0;entryDx=0;entryDy=0;" edge="1" parent="1" source="aZ5adwHKV0_EOkv4RIQL-6" target="aZ5adwHKV0_EOkv4RIQL-15">
          <mxGeometry relative="1" as="geometry" />
        </mxCell>
        <mxCell id="aZ5adwHKV0_EOkv4RIQL-6" value="&lt;p style=&quot;line-height: 120%;&quot;&gt;KmP&lt;/p&gt;" style="shape=manualInput;whiteSpace=wrap;html=1;" vertex="1" parent="1">
          <mxGeometry x="40" y="220" width="80" height="70" as="geometry" />
        </mxCell>
        <mxCell id="aZ5adwHKV0_EOkv4RIQL-7" value="taxaConsumo = kmPercorrido / combustivel" style="rounded=0;whiteSpace=wrap;html=1;" vertex="1" parent="1">
          <mxGeometry y="540" width="160" height="60" as="geometry" />
        </mxCell>
        <mxCell id="aZ5adwHKV0_EOkv4RIQL-8" value="&quot;Informe quantos quilômetros foram percorridos&quot;" style="shape=document;whiteSpace=wrap;html=1;boundedLbl=1;" vertex="1" parent="1">
          <mxGeometry x="20" y="110" width="118.5" height="80" as="geometry" />
        </mxCell>
        <mxCell id="aZ5adwHKV0_EOkv4RIQL-9" value="" style="endArrow=classic;html=1;rounded=0;exitX=0.496;exitY=0.838;exitDx=0;exitDy=0;exitPerimeter=0;entryX=0.506;entryY=0.229;entryDx=0;entryDy=0;entryPerimeter=0;" edge="1" parent="1" source="aZ5adwHKV0_EOkv4RIQL-8" target="aZ5adwHKV0_EOkv4RIQL-6">
          <mxGeometry width="50" height="50" relative="1" as="geometry">
            <mxPoint x="118.5" y="240" as="sourcePoint" />
            <mxPoint x="78.5" y="250" as="targetPoint" />
            <Array as="points" />
          </mxGeometry>
        </mxCell>
        <mxCell id="aZ5adwHKV0_EOkv4RIQL-20" style="edgeStyle=orthogonalEdgeStyle;rounded=0;orthogonalLoop=1;jettySize=auto;html=1;exitX=0;exitY=0;exitDx=46.25;exitDy=40;exitPerimeter=0;entryX=0.5;entryY=0;entryDx=0;entryDy=0;" edge="1" parent="1" source="aZ5adwHKV0_EOkv4RIQL-11" target="aZ5adwHKV0_EOkv4RIQL-19">
          <mxGeometry relative="1" as="geometry" />
        </mxCell>
        <mxCell id="aZ5adwHKV0_EOkv4RIQL-11" value="taxaConsumo" style="shape=display;whiteSpace=wrap;html=1;" vertex="1" parent="1">
          <mxGeometry x="34.25" y="650" width="90" height="40" as="geometry" />
        </mxCell>
        <mxCell id="aZ5adwHKV0_EOkv4RIQL-13" value="Fim" style="ellipse;whiteSpace=wrap;html=1;" vertex="1" parent="1">
          <mxGeometry x="35" y="1020" width="90" height="60" as="geometry" />
        </mxCell>
        <mxCell id="aZ5adwHKV0_EOkv4RIQL-18" style="edgeStyle=orthogonalEdgeStyle;rounded=0;orthogonalLoop=1;jettySize=auto;html=1;exitX=0.5;exitY=1;exitDx=0;exitDy=0;entryX=0.5;entryY=0;entryDx=0;entryDy=0;" edge="1" parent="1" source="aZ5adwHKV0_EOkv4RIQL-14" target="aZ5adwHKV0_EOkv4RIQL-7">
          <mxGeometry relative="1" as="geometry" />
        </mxCell>
        <mxCell id="aZ5adwHKV0_EOkv4RIQL-14" value="&lt;p style=&quot;line-height: 120%;&quot;&gt;Comb&lt;/p&gt;" style="shape=manualInput;whiteSpace=wrap;html=1;" vertex="1" parent="1">
          <mxGeometry x="40" y="430" width="80" height="70" as="geometry" />
        </mxCell>
        <mxCell id="aZ5adwHKV0_EOkv4RIQL-15" value="&quot;Informe quanto combustível foi consumido&quot;" style="shape=document;whiteSpace=wrap;html=1;boundedLbl=1;" vertex="1" parent="1">
          <mxGeometry x="20.75" y="320" width="118.5" height="80" as="geometry" />
        </mxCell>
        <mxCell id="aZ5adwHKV0_EOkv4RIQL-16" value="" style="endArrow=classic;html=1;rounded=0;exitX=0.496;exitY=0.838;exitDx=0;exitDy=0;exitPerimeter=0;entryX=0.506;entryY=0.229;entryDx=0;entryDy=0;entryPerimeter=0;" edge="1" parent="1" source="aZ5adwHKV0_EOkv4RIQL-15" target="aZ5adwHKV0_EOkv4RIQL-14">
          <mxGeometry width="50" height="50" relative="1" as="geometry">
            <mxPoint x="119.25" y="450" as="sourcePoint" />
            <mxPoint x="79.25" y="460" as="targetPoint" />
            <Array as="points" />
          </mxGeometry>
        </mxCell>
        <mxCell id="aZ5adwHKV0_EOkv4RIQL-23" style="edgeStyle=orthogonalEdgeStyle;rounded=0;orthogonalLoop=1;jettySize=auto;html=1;exitX=0.5;exitY=1;exitDx=0;exitDy=0;entryX=0.5;entryY=0;entryDx=0;entryDy=0;" edge="1" parent="1" source="aZ5adwHKV0_EOkv4RIQL-19" target="aZ5adwHKV0_EOkv4RIQL-22">
          <mxGeometry relative="1" as="geometry" />
        </mxCell>
        <mxCell id="aZ5adwHKV0_EOkv4RIQL-25" style="edgeStyle=orthogonalEdgeStyle;rounded=0;orthogonalLoop=1;jettySize=auto;html=1;exitX=1;exitY=0.5;exitDx=0;exitDy=0;entryX=0;entryY=0.5;entryDx=0;entryDy=0;" edge="1" parent="1" source="aZ5adwHKV0_EOkv4RIQL-19" target="aZ5adwHKV0_EOkv4RIQL-24">
          <mxGeometry relative="1" as="geometry" />
        </mxCell>
        <mxCell id="aZ5adwHKV0_EOkv4RIQL-19" value="taxa &amp;lt;= 8" style="rhombus;whiteSpace=wrap;html=1;" vertex="1" parent="1">
          <mxGeometry x="30" y="740" width="100" height="80" as="geometry" />
        </mxCell>
        <mxCell id="aZ5adwHKV0_EOkv4RIQL-21" style="edgeStyle=orthogonalEdgeStyle;rounded=0;orthogonalLoop=1;jettySize=auto;html=1;exitX=0.5;exitY=1;exitDx=0;exitDy=0;entryX=0;entryY=0;entryDx=46.25;entryDy=0;entryPerimeter=0;" edge="1" parent="1" source="aZ5adwHKV0_EOkv4RIQL-7" target="aZ5adwHKV0_EOkv4RIQL-11">
          <mxGeometry relative="1" as="geometry" />
        </mxCell>
        <mxCell id="aZ5adwHKV0_EOkv4RIQL-26" style="edgeStyle=orthogonalEdgeStyle;rounded=0;orthogonalLoop=1;jettySize=auto;html=1;exitX=0.5;exitY=1;exitDx=0;exitDy=0;entryX=0.5;entryY=0;entryDx=0;entryDy=0;" edge="1" parent="1" source="aZ5adwHKV0_EOkv4RIQL-22" target="aZ5adwHKV0_EOkv4RIQL-13">
          <mxGeometry relative="1" as="geometry" />
        </mxCell>
        <mxCell id="aZ5adwHKV0_EOkv4RIQL-22" value="O automóvel está consumindo muito combustível" style="rounded=0;whiteSpace=wrap;html=1;" vertex="1" parent="1">
          <mxGeometry x="19" y="870" width="120" height="60" as="geometry" />
        </mxCell>
        <mxCell id="aZ5adwHKV0_EOkv4RIQL-27" style="edgeStyle=orthogonalEdgeStyle;rounded=0;orthogonalLoop=1;jettySize=auto;html=1;exitX=0.5;exitY=1;exitDx=0;exitDy=0;" edge="1" parent="1" source="aZ5adwHKV0_EOkv4RIQL-24">
          <mxGeometry relative="1" as="geometry">
            <mxPoint x="80" y="980" as="targetPoint" />
            <Array as="points">
              <mxPoint x="320" y="980" />
              <mxPoint x="125" y="980" />
            </Array>
          </mxGeometry>
        </mxCell>
        <mxCell id="aZ5adwHKV0_EOkv4RIQL-24" value="O consumo de combustível está bom" style="rounded=0;whiteSpace=wrap;html=1;" vertex="1" parent="1">
          <mxGeometry x="260" y="750" width="120" height="60" as="geometry" />
        </mxCell>
        <mxCell id="aZ5adwHKV0_EOkv4RIQL-28" value="F" style="text;html=1;align=center;verticalAlign=middle;resizable=0;points=[];autosize=1;strokeColor=none;fillColor=none;" vertex="1" parent="1">
          <mxGeometry x="130" y="750" width="30" height="30" as="geometry" />
        </mxCell>
        <mxCell id="aZ5adwHKV0_EOkv4RIQL-29" value="V" style="text;html=1;align=center;verticalAlign=middle;resizable=0;points=[];autosize=1;strokeColor=none;fillColor=none;" vertex="1" parent="1">
          <mxGeometry x="45" y="818" width="30" height="30" as="geometry" />
        </mxCell>
      </root>
    </mxGraphModel>
  </diagram>
</mxfile>
